<?xml version="1.0" encoding="utf-8"?>
<svg xmlns="http://www.w3.org/2000/svg" style="margin: auto; background: rgb(241, 242, 243) none repeat scroll 0% 0%; display: block; shape-rendering: auto;" width="280" height="250" preserveAspectRatio="xMidYMid">
<style type="text/css">
  text {
    text-anchor: middle; font-size: 73px; opacity: 0;
  }
</style>
<g style="transform-origin: 140px 125px 0px; transform: scale(0.9125);">
<g transform="translate(140,125)">
  <g transform="translate(0,0)"><g class="path" style="opacity: 1; transform-origin: -100.178px -6.54662px 0px; animation: 0.900901s linear -0.52027s infinite normal forwards running fade-2cf865b4-7c44-448b-98da-d15f4bef1c6c;"><path d="M44.64 0L44.64-42.80L30.08 0L25.20 0L10.72-42.80L10.72 0L6.24 0L6.24-56L10.72-56L27.60-6.88L44.64-56L49.12-56L49.12 0L44.64 0" fill="#ffffff" stroke="none" stroke-width="none" transform="translate(-127.85830688476562,21.45337543487549)" style="fill: rgb(255, 255, 255);"></path></g><g class="path" style="opacity: 1; transform-origin: -51.1783px 1.37337px 0px; animation: 0.900901s linear -0.445946s infinite normal forwards running fade-2cf865b4-7c44-448b-98da-d15f4bef1c6c;"><path d="M91.60-14.72L91.60-14.72Q91.60-8 87.92-3.60L87.92-3.60L87.92-3.60Q84.24 0.80 76.80 0.80L76.80 0.80L76.80 0.80Q69.36 0.80 65.56-3.64L65.56-3.64L65.56-3.64Q61.76-8.08 61.76-14.72L61.76-14.72L61.76-25.28L61.76-25.28Q61.76-32.88 65.64-36.92L65.64-36.92L65.64-36.92Q69.52-40.96 76.80-40.96L76.80-40.96L76.80-40.96Q83.76-40.96 87.68-36.76L87.68-36.76L87.68-36.76Q91.60-32.56 91.60-25.28L91.60-25.28L91.60-14.72zM87.12-25.28L87.12-25.28Q87.12-31.28 84.36-34.08L84.36-34.08L84.36-34.08Q81.60-36.88 76.80-36.88L76.80-36.88L76.80-36.88Q71.84-36.88 69.04-34.08L69.04-34.08L69.04-34.08Q66.24-31.28 66.24-25.28L66.24-25.28L66.24-13.92L66.24-13.92Q66.24-9.12 69.08-6.16L69.08-6.16L69.08-6.16Q71.92-3.20 76.80-3.20L76.80-3.20L76.80-3.20Q81.76-3.20 84.44-6.12L84.44-6.12L84.44-6.12Q87.12-9.04 87.12-13.92L87.12-13.92L87.12-25.28" fill="#ffffff" stroke="none" stroke-width="none" transform="translate(-127.85830688476562,21.45337543487549)" style="fill: rgb(255, 255, 255);"></path></g><g class="path" style="opacity: 1; transform-origin: -13.5783px -6.54662px 0px; animation: 0.900901s linear -0.371622s infinite normal forwards running fade-2cf865b4-7c44-448b-98da-d15f4bef1c6c;"><path d="M123.60 0L108.24-25.36L104.08-21.76L104.08 0L99.60 0L99.60-56L104.08-56L104.08-26.80L120.08-41.60L123.28-38.48L111.44-28.16L111.44-28.16Q116.88-19.12 128.96 0L128.96 0L123.60 0" fill="#ffffff" stroke="none" stroke-width="none" transform="translate(-127.85830688476562,21.45337543487549)" style="fill: rgb(255, 255, 255);"></path></g><g class="path" style="opacity: 1; transform-origin: 18.9017px 1.85337px 0px; animation: 0.900901s linear -0.297297s infinite normal forwards running fade-2cf865b4-7c44-448b-98da-d15f4bef1c6c;"><path d="M157.28 0L157.60-4.08L157.60-4.08Q155.68-1.68 152.76-0.40L152.76-0.40L152.76-0.40Q149.84 0.88 146.88 0.88L146.88 0.88L146.88 0.88Q131.84 0.88 131.84-13.76L131.84-13.76L131.84-40.08L136.32-40.08L136.32-13.20L136.32-13.20Q136.32-8.08 139.16-5.60L139.16-5.60L139.16-5.60Q142-3.12 146.88-3.12L146.88-3.12L146.88-3.12Q151.68-3.12 154.44-5.56L154.44-5.56L154.44-5.56Q157.20-8 157.20-13.20L157.20-13.20L157.20-40.08L161.68-40.08L161.68 0L157.28 0" fill="#ffffff" stroke="none" stroke-width="none" transform="translate(-127.85830688476562,21.45337543487549)" style="fill: rgb(255, 255, 255);"></path></g><g class="path" style="opacity: 1; transform-origin: 45.3417px -6.54662px 0px; animation: 0.900901s linear -0.222973s infinite normal forwards running fade-2cf865b4-7c44-448b-98da-d15f4bef1c6c;"><path d="M170.96 0L170.96-56L175.44-56L175.44 0L170.96 0" fill="#ffffff" stroke="none" stroke-width="none" transform="translate(-127.85830688476562,21.45337543487549)" style="fill: rgb(255, 255, 255);"></path></g><g class="path" style="opacity: 1; transform-origin: 64.5417px -6.02662px 0px; animation: 0.900901s linear -0.148649s infinite normal forwards running fade-2cf865b4-7c44-448b-98da-d15f4bef1c6c;"><path d="M193.84 1.04L193.84 1.04Q189.36-0.24 187.36-3.04L187.36-3.04L187.36-3.04Q185.36-5.84 185.36-10.56L185.36-10.56L185.36-56L189.84-56L189.84-40.08L199.44-40.08L197.52-35.84L189.84-35.84L189.84-10.56L189.84-10.56Q189.84-4.16 195.12-2.40L195.12-2.40L193.84 1.04" fill="#ffffff" stroke="none" stroke-width="none" transform="translate(-127.85830688476562,21.45337543487549)" style="fill: rgb(255, 255, 255);"></path></g><g class="path" style="opacity: 1; transform-origin: 91.2217px 1.85337px 0px; animation: 0.900901s linear -0.0743243s infinite normal forwards running fade-2cf865b4-7c44-448b-98da-d15f4bef1c6c;"><path d="M229.60 0L229.92-4.08L229.92-4.08Q228-1.68 225.08-0.40L225.08-0.40L225.08-0.40Q222.16 0.88 219.20 0.88L219.20 0.88L219.20 0.88Q204.16 0.88 204.16-13.76L204.16-13.76L204.16-40.08L208.64-40.08L208.64-13.20L208.64-13.20Q208.64-8.08 211.48-5.60L211.48-5.60L211.48-5.60Q214.32-3.12 219.20-3.12L219.20-3.12L219.20-3.12Q224-3.12 226.76-5.56L226.76-5.56L226.76-5.56Q229.52-8 229.52-13.20L229.52-13.20L229.52-40.08L234-40.08L234 0L229.60 0" fill="#ffffff" stroke="none" stroke-width="none" transform="translate(-127.85830688476562,21.45337543487549)" style="fill: rgb(255, 255, 255);"></path></g><g class="path" style="opacity: 1; transform-origin: 124.062px 1.05338px 0px; animation: 0.900901s linear 0s infinite normal forwards running fade-2cf865b4-7c44-448b-98da-d15f4bef1c6c;"><path d="M241.92 0L241.92-40.08L246.40-40.08L246.16-37.28L246.16-37.28Q249.92-40.80 256-40.80L256-40.80L256-40.80Q258.16-40.80 261.92-40.08L261.92-40.08L260.72-36L260.72-36Q258.16-36.80 255.36-36.80L255.36-36.80L255.36-36.80Q251.68-36.80 249.04-35.44L249.04-35.44L249.04-35.44Q246.40-34.08 246.40-31.36L246.40-31.36L246.40 0L241.92 0" fill="#ffffff" stroke="none" stroke-width="none" transform="translate(-127.85830688476562,21.45337543487549)" style="fill: rgb(255, 255, 255);"></path></g></g>
</g>
</g>
<style id="fade-2cf865b4-7c44-448b-98da-d15f4bef1c6c" data-anikit="">@keyframes fade-2cf865b4-7c44-448b-98da-d15f4bef1c6c
{
  0% {
    animation-timing-function: cubic-bezier(0.2057,0.573,0.3723,0.9184);
    opacity: 1;
  }
  100% {
    opacity: 0;
  }
}</style></svg>